<?xml version="1.0" encoding="utf-8"?>
<!-- Generator: Adobe Illustrator 16.0.0, SVG Export Plug-In . SVG Version: 6.00 Build 0)  -->
<!DOCTYPE svg PUBLIC "-//W3C//DTD SVG 1.1//EN" "http://www.w3.org/Graphics/SVG/1.1/DTD/svg11.dtd">
<svg version="1.1" id="Calque_1" xmlns="http://www.w3.org/2000/svg" xmlns:xlink="http://www.w3.org/1999/xlink" x="0px" y="0px"
	 width="1013px" height="342px" viewBox="0 0 1013 342" enable-background="new 0 0 1013 342" xml:space="preserve">
<g>
	<g>
		<path fill-rule="evenodd" clip-rule="evenodd" fill="#1B2646" d="M0,231c0.369-1.151,1.043-2.297,1.061-3.453
			c0.393-25.598,0.661-51.197,1.067-76.794c0.216-13.604,0.619-27.204,0.997-40.804c0.122-4.375,4.479-7.789,10.189-7.815
			c15.996-0.073,31.993-0.147,47.987,0.003c23.6,0.222,47.198,0.658,70.797,0.957c6.934,0.088,8.669,1.509,8.795,7.582
			c0.183,8.782-2.629,12.999-8.94,13.194c-3.829,0.118-7.664,0.022-11.497,0.023c-17.162,0-34.326-0.121-51.486,0.043
			c-11.104,0.105-22.206,0.579-33.306,0.982c-4.844,0.175-9.01,3.872-9.703,8.758c-0.575,4.06-1.059,8.184-1.009,12.272
			c0.186,15.101-0.008,30.247,1.188,45.276c0.66,8.294-0.836,8.935,9.063,8.891c9.331-0.042,18.664,0.119,27.992-0.043
			c10.604-0.186,21.211-1.042,31.804-0.857c12.71,0.223,25.414,1.138,38.106,1.965c3.956,0.258,6.231,7.693,4.183,12.904
			c-1.958,4.98-6.032,7.863-11.845,7.764c-10.271-0.177-20.54-0.941-30.807-0.888c-20.434,0.105-40.866,0.627-61.3,0.913
			c-4.656,0.064-7.369,2.335-8.415,6.75c-0.411,1.739-0.957,3.505-0.987,5.266c-0.395,23.098-0.751,46.197-0.989,69.297
			c-0.03,2.926,0.297,5.978,1.182,8.738c0.428,1.335,2.512,3.003,3.885,3.039c19.927,0.524,39.86,0.996,59.793,1.061
			c13.1,0.043,26.202-0.686,39.305-0.864c4.907-0.066,8.615,3.942,8.779,8.826c0.38,11.296-6.677,15.97-19.176,13.931
			c-6.375-1.04-13.066-0.069-19.613-0.146c-9.121-0.108-18.239-0.353-27.359-0.528c-5.479-0.106-10.961-0.344-16.438-0.265
			c-16.103,0.233-32.203,0.651-48.305,0.818C3.339,337.813,1.667,336.628,0,336C0,301,0,266,0,231z"/>
		<path fill-rule="evenodd" clip-rule="evenodd" fill="#1B2646" d="M443,342c-6.825-2.434-13.995-4.194-20.387-7.473
			c-7.779-3.991-15.56-8.496-22.154-14.159c-9.612-8.254-18.932-17.152-24.917-28.625c-8.168-15.654-8.915-32.416-6.563-49.544
			c0.514-3.742,0.787-7.522,1.046-11.294c0.81-11.815,6.453-21.686,13.573-30.471c6.919-8.536,14.28-17.08,22.874-23.796
			c10.677-8.346,23.068-14.213,37.022-15.522c7.363-0.691,14.754-2.08,22.092-1.854c15.014,0.46,28.835,5.064,41.134,14.005
			c5.806,4.222,11.875,8.094,17.944,11.936c4.259,2.696,7.156,0.913,7.458-4.229c0.251-4.266,0.551-8.535,1.061-12.775
			c0.142-1.174,1.054-3.18,1.71-3.22c5.019-0.309,10.491-1.472,14.976,0.08c4.636,1.604,4.264,7.263,3.929,11.789
			c-0.205,2.775-0.837,5.534-0.867,8.305c-0.389,35.419-0.755,70.839-0.984,106.26c-0.037,5.767,0.89,11.538,0.875,17.306
			c-0.018,6.435-0.532,12.873-0.964,19.302c-0.283,4.216-2.494,6.942-6.768,7.78c-1.761,0.345-3.52,0.708-5.285,1.027
			c-5.24,0.949-8.573-1.811-8.684-7.256c-0.067-3.331,0.03-6.664-0.024-9.995c-0.08-4.783-1.829-5.923-6.169-3.6
			c-3.013,1.612-5.757,3.751-8.529,5.78c-12.681,9.285-26.759,15.532-41.926,19.453c-0.211,0.055-0.316,0.519-0.472,0.791
			C463.667,342,453.333,342,443,342z M459.193,322.976c19.209,2.169,41.618-10.029,52.144-19.772
			c19.957-18.474,24.813-42.095,20.5-67.689c-2.616-15.524-10.06-29.608-23.065-39.035c-17.768-12.877-37.895-18.06-60.005-14.652
			c-18.921,2.916-33.992,12.575-45.199,27.329c-12.83,16.892-17.801,36.432-13.596,57.683c4.332,21.894,18.43,36.896,36.616,47.738
			C436.523,320.5,447.897,325.083,459.193,322.976z"/>
		<path fill-rule="evenodd" clip-rule="evenodd" fill="#1B2646" d="M491,0c6.09,5.419,6.148,12.736,7.091,20.125
			c1.191,9.348,3.165,18.711,5.946,27.714c4.084,13.226,8.194,26.617,14.208,39.009c3.793,7.815,10.57,14.46,16.959,20.649
			c5.169,5.007,15.612,4.389,21.629,0.232c4.486-3.099,6.057-11.229,4.982-18.65c-2.255-15.573-3.832-31.244-5.717-46.872
			c-0.56-4.639,2.153-7.565,5.486-9.841c5.263-3.592,10.152,0.146,11.356,7.885c2.485,15.989,4.791,32.032,8.086,47.863
			c3.735,17.952,14.535,31.039,30.803,39.347c12.771,6.521,24.085,15.073,35.754,23.282c11.147,7.841,19.184,17.914,25.508,29.26
			c7.283,13.067,13.422,26.847,14.905,42.169c0.404,4.178,2.214,8.204,2.802,12.38c1.234,8.766,2.52,17.562,2.993,26.388
			c0.72,13.416,0.878,26.867,1.038,40.307c0.054,4.43-0.452,8.891-1.02,13.296c-0.563,4.364-5.54,7.563-10.896,7.35
			c-5.165-0.206-8.719-4.06-8.72-10.553c-0.002-8.77,1.418-17.606,0.729-26.296c-1.23-15.515-3.33-30.977-5.573-46.388
			c-1.146-7.87-2.342-16.017-5.365-23.268c-5.528-13.26-12.143-25.971-21.8-37.078c-18.424-21.191-42.781-30.444-69.052-36.447
			c-10.949-2.502-22.062-4.569-32.709-8.034c-14.468-4.708-25.479-14.677-32.996-27.584c-8.203-14.083-16.347-28.288-20.933-44.243
			c-4.038-14.046-7.8-28.048-8.432-42.73c-0.084-1.947-0.652-3.87-0.95-5.812C476.234,7.736,478.082,3.193,483,0
			C485.667,0,488.333,0,491,0z"/>
		<path fill-rule="evenodd" clip-rule="evenodd" fill="#1B2646" d="M888,0c8.06,7.334,4.781,17.099,3.343,24.998
			c-3.203,17.589-7.448,35.249-13.739,51.949c-8.27,21.948-20.837,41.971-42.282,53.349c-10.886,5.775-23.596,8.409-35.733,11.453
			c-15.504,3.887-31.34,6.385-45.296,15.006c-16.396,10.127-30.613,22.161-38.999,40.127c-2.468,5.288-6.16,10.016-9.413,14.919
			c-0.757,1.142-2.009,1.955-3.787,3.63c-2.774-10.318-5.571-19.782-7.713-29.393c-0.498-2.233,0.619-5.408,2.045-7.396
			c9.695-13.521,19.624-26.896,34.223-35.735c11.753-7.115,23.749-13.853,35.255-21.345c12.431-8.094,19.824-19.729,22.244-34.545
			c2.078-12.731,4.625-25.386,6.84-38.097c0.367-2.105,0.103-4.322,0.119-6.487c0.046-5.996,4.501-11.083,9.803-11.188
			c4.339-0.085,9.402,5.66,8.869,11.314c-1.076,11.415-2.781,22.771-4.279,34.146c-0.813,6.167-2.183,12.298-2.496,18.486
			c-0.441,8.69,5.856,14.469,14.638,14.985c10.547,0.621,17.321-5.538,22.304-13.188c12.154-18.664,19.713-39.36,24.093-61.157
			c1.738-8.652,2.356-17.539,4.29-26.138C873.109,6.213,876.044,3.217,878,0C881.333,0,884.667,0,888,0z"/>
		<path fill-rule="evenodd" clip-rule="evenodd" fill="#1B2646" d="M1013,332c-4.313,4.496-9.879,2.988-14.928,2.564
			c-1.763-0.147-4.124-2.888-4.732-4.893c-1.03-3.396-1.161-7.146-1.19-10.75c-0.396-47.603-0.719-95.205-1.034-142.808
			c-0.059-8.832-0.119-17.667,0.036-26.497c0.084-4.775,1.034-9.558,0.868-14.312c-0.329-9.374-1.337-18.723-1.718-28.096
			c-0.193-4.767,2.248-8.778,6.437-10.807c4.413-2.138,9.406-2.303,13.564,0.808c1.193,0.893,1.521,3.511,1.526,5.34
			c0.093,26.832,0.045,53.664,0.111,80.496c0.004,1.651,0.69,3.302,1.06,4.953C1013,236,1013,284,1013,332z"/>
		<path fill-rule="evenodd" clip-rule="evenodd" fill="#1B2646" d="M672,342c-1.612-0.512-3.217-1.051-4.838-1.531
			c-11.881-3.515-20.066-13.29-20.115-26.06c-0.038-9.931-0.705-19.857-0.908-29.789c-0.158-7.699,0.27-15.419-0.1-23.104
			c-0.62-12.896-3-25.451-10.911-36.096c-2.794-3.76-7.042-6.423-9.954-10.116c-2.229-2.826-4.319-6.371-4.753-9.813
			c-0.355-2.825,1.251-5.97,4.931-7.632c3.766-1.701,6.38,0.174,8.554,1.924c8.482,6.828,16.803,14.117,20.582,24.701
			c2.394,6.701,3.753,13.834,4.977,20.878c1.762,10.148,3.731,20.354,4.225,30.604c0.548,11.387-0.48,22.848-0.79,34.277
			c-0.254,9.435,4.027,18.55,14.458,21.156c3.351,0.838,6.366,3.015,10.573,5.091c-3.78,2.097-6.854,3.803-9.93,5.509
			C676,342,674,342,672,342z"/>
		<path fill-rule="evenodd" clip-rule="evenodd" fill="#1B2646" d="M930.169,251.893c-5.666,0.001-11.336,0.13-16.997-0.033
			c-6.442-0.187-12.88-0.959-19.314-0.906c-21.771,0.178-43.543,0.492-65.309,1.023c-5.379,0.131-10.784,1.03-16.064,2.122
			c-1.408,0.291-3.305,2.522-3.431,3.995c-0.729,8.501,0.689,16.605,5.297,24.051c2.755,4.451,5.294,9.08,7.448,13.847
			c2.725,6.028,7.203,10.23,12.926,12.983c8.246,3.969,16.498,8.129,25.151,10.985c8.614,2.843,17.685,2.436,26.838,1.446
			c19.15-2.071,33.281-12.858,46.647-25.229c2.367-2.19,3.706-5.508,6.108-7.641c2.185-1.94,5.198-4.193,7.795-4.131
			c3.958,0.095,8.481,1.664,9.639,6.274c0.535,2.131-0.341,5.08-1.524,7.106c-14.074,24.1-36.091,37.043-62.563,42.782
			c-6.749,1.463-14.19,0.005-21.288-0.483c-7.042-0.485-14.053-1.438-21.077-2.19c-4.453-0.477-8.324-1.745-12.036-4.78
			c-3.827-3.13-8.977-4.579-13.241-7.252c-12.812-8.028-22.317-19.142-30.188-31.996c-8.167-13.338-10.685-28.184-10.54-43.069
			c0.158-16.231,3.922-32.215,12.642-46.402c9.366-15.239,22.347-26.772,37.46-36.205c8.75-5.461,18.485-7.303,28.265-8.984
			c14.859-2.556,29.576-1.065,43.716,3.991c21.617,7.729,37.354,22.382,49.137,41.984c7.079,11.775,9.153,24.677,11.153,37.737
			c0.74,4.831-3.998,8.881-10.15,8.948C947.836,251.964,939.002,251.892,930.169,251.893z M895.874,233.106
			c11.666,0,23.332,0.026,34.998-0.01c7.171-0.021,11.088-4.519,9.021-11.25c-3.191-10.391-8.554-20.393-17.323-26.341
			c-20.069-13.611-42.036-20.184-66.659-12.785c-21.443,6.441-35.208,20.248-42.306,41.127c-1.336,3.931,1.456,8.803,5.161,9.199
			c4.749,0.508,9.533,1.046,14.297,0.993c10.273-0.115,20.54-0.734,30.813-0.896C874.54,232.977,885.208,233.106,895.874,233.106z"
			/>
		<path fill-rule="evenodd" clip-rule="evenodd" fill="#1B2646" d="M193.107,297.792c0-8.664-0.128-17.33,0.033-25.991
			c0.196-10.604,0.667-21.203,0.958-31.807c0.32-11.638,0.809-23.279,0.753-34.917c-0.027-5.699-1.382-11.381-1.641-17.094
			c-0.173-3.837-2.453-4.78-5.399-5.04c-5.423-0.479-10.871-0.662-16.301-1.07c-3.441-0.259-7.73-0.296-8.319-4.472
			c-0.475-3.368-0.029-7.834,1.922-10.297c1.828-2.306,6.091-3.21,9.426-3.648c3.503-0.461,7.218,0.841,10.765,0.525
			c7.338-0.651,9.556-3.189,9.683-12.453c0.151-11.095-0.69-22.198-0.791-33.302c-0.046-5.093-0.324-10.555,1.382-15.152
			c1.001-2.697,5.598-4.215,8.782-5.867c1.18-0.612,2.958-0.21,4.445-0.07c7.896,0.742,9.21,2.076,9.056,9.962
			c-0.212,10.805-0.794,21.604-0.902,32.407c-0.052,5.261,0.362,10.562,1.03,15.784c0.578,4.518,3.446,7.386,8.111,7.768
			c6.088,0.5,12.196,0.833,18.302,1.016c6.126,0.184,9.336,2.633,9.485,7.633c0.166,5.577-3.493,9.622-9.17,10.184
			c-5.71,0.564-11.494,0.765-17.108,1.844c-7.839,1.508-10.361,4.498-10.648,12.657c-0.554,15.759-1.465,31.563-0.78,47.285
			c0.376,8.635-1.247,17.085-0.902,25.418c0.595,14.379-1.439,29.109,3.585,43.168c1.125,3.147,7.047,6.006,11.621,4.503
			c4.656-1.531,7.524,0.564,8.352,5.858c1.475,9.44-2.809,14.849-12.491,15.198c-8.819,0.318-17.66,0.155-26.489,0.034
			c-4.813-0.066-6.738-2.221-6.747-7.073C193.093,319.786,193.107,308.789,193.107,297.792z"/>
		<path fill-rule="evenodd" clip-rule="evenodd" fill="#1B2646" d="M308.39,333.651c-3.332,0.733-6.956,1.533-10.582,2.327
			c-6.276,1.374-9.769-1.276-9.659-7.752c0.178-10.438,0.769-20.868,0.919-31.306c0.168-11.661-0.079-23.327,0.082-34.988
			c0.101-7.272,0.942-14.541,0.889-21.807c-0.105-14.436-0.788-28.866-0.862-43.302c-0.045-8.767,0.508-17.542,1.018-26.301
			c0.097-1.668,0.829-3.71,1.991-4.832c4.209-4.069,17.852-1.374,20.509,3.85c0.445,0.876,0.9,1.76,1.221,2.686
			c1.33,3.848,3.325,4.452,7.119,2.535c8.908-4.5,17.919-8.89,27.202-12.521c4.727-1.848,10.106-2.452,15.236-2.71
			c4.393-0.222,5.936,3.398,3.157,7.115c-5.14,6.875-11.24,11.969-19.539,15.753c-10.783,4.918-21.258,12.114-27.788,22.365
			c-5.299,8.319-9.55,17.424-8.672,28.452c1.094,13.742,0.393,27.639,0.225,41.466c-0.159,13.103-0.528,26.205-1.01,39.301
			C309.61,320.406,308.911,326.813,308.39,333.651z"/>
		<path fill-rule="evenodd" clip-rule="evenodd" fill="#1B2646" d="M707.481,258.686c0.215-3.994,0.08-8.045,0.707-11.974
			c2.68-16.782,9.659-31.498,22.139-43.23c2.519-2.368,6.049-3.65,9.081-5.484c3.555-2.151,6.436-0.258,8.002,2.372
			c1.068,1.793,1.194,5.342,0.091,7.02c-4.03,6.126-8.997,11.628-13.157,17.677c-6.37,9.262-12.286,18.833-18.571,28.154
			c-1.555,2.307-3.787,4.156-5.709,6.216C709.203,259.186,708.342,258.936,707.481,258.686z"/>
	</g>
</g>
</svg>
